<?xml version="1.0" encoding="UTF-8"?>
<svg enable-background="new 0 0 455.148 454.788" viewBox="0 0 455.148 454.788" xmlns="http://www.w3.org/2000/svg">
 <defs>
  <linearGradient id="d" x1="424.37" x2="455.15" gradientUnits="userSpaceOnUse">
   <stop stop-color="#e5e5e5" offset="0"/>
   <stop stop-color="#e2e2e2" offset=".1696"/>
   <stop stop-color="#d8d8d8" offset=".3059"/>
   <stop stop-color="#c7c7c7" offset=".4306"/>
   <stop stop-color="#b0b0b0" offset=".5484"/>
   <stop stop-color="#919191" offset=".6614"/>
   <stop stop-color="#6b6b6b" offset=".7707"/>
   <stop stop-color="#3e3e3e" offset=".8772"/>
   <stop stop-color="#0c0c0c" offset=".9788"/>
   <stop offset="1"/>
  </linearGradient>
  <linearGradient id="c" x1="30.852" x2=".0713" gradientUnits="userSpaceOnUse">
   <stop stop-color="#e5e5e5" offset="0"/>
   <stop stop-color="#e2e2e2" offset=".2675"/>
   <stop stop-color="#d8d8d8" offset=".4824"/>
   <stop stop-color="#c7c7c7" offset=".679"/>
   <stop stop-color="#b0b0b0" offset=".8635"/>
   <stop stop-color="#999" offset="1"/>
  </linearGradient>
  <linearGradient id="b" x2="0" y1="30.852" y2=".0718" gradientUnits="userSpaceOnUse">
   <stop stop-color="#e5e5e5" offset="0"/>
   <stop stop-color="#e2e2e2" offset=".2675"/>
   <stop stop-color="#d8d8d8" offset=".4824"/>
   <stop stop-color="#c7c7c7" offset=".679"/>
   <stop stop-color="#b0b0b0" offset=".8635"/>
   <stop stop-color="#999" offset="1"/>
  </linearGradient>
  <linearGradient id="a" x2="0" y1="423.9" y2="454.68" gradientUnits="userSpaceOnUse">
   <stop stop-color="#e5e5e5" offset="0"/>
   <stop stop-color="#e2e2e2" offset=".1696"/>
   <stop stop-color="#d8d8d8" offset=".3059"/>
   <stop stop-color="#c7c7c7" offset=".4306"/>
   <stop stop-color="#b0b0b0" offset=".5484"/>
   <stop stop-color="#919191" offset=".6614"/>
   <stop stop-color="#6b6b6b" offset=".7707"/>
   <stop stop-color="#3e3e3e" offset=".8772"/>
   <stop stop-color="#0c0c0c" offset=".9788"/>
   <stop offset="1"/>
  </linearGradient>
 </defs>
 <path d="m227.39 0h-209.39c-9.941 0-18 8.059-18 18v418.79c0 9.94 8.059 18 18 18h418.79c9.941 0 18-8.06 18-18v-418.79c0-9.941-8.059-18-18-18h-209.39z" fill="#e5e5e5" fill-rule="evenodd"/>
 <path d="m449.748,449.964-25.381-25.344c.865-.828 1.584-1.8 2.305-2.772 .576-1.08 1.367-2.088 1.836-3.168 .469-1.188.648-2.16.936-3.348 .18-1.188.289-2.521.324-3.853l-.145-369.396 .145,1.908c-.035-1.368-.145-2.7-.324-3.852-.287-1.296-.467-2.268-.936-3.348-.469-1.188-1.26-2.196-1.836-3.168-.721-1.044-1.439-1.908-2.305-2.736l25.381-25.38c.684.576 1.295,1.332 1.98,2.268 .611.792 1.295,2.016 1.908,3.276 .432,1.296 1.115,2.916 1.367,4.572 .145,1.44.145,2.952.145,4.68-.037,1.692-.037,3.816 0,5.976v402.912c.035,2.124.035,4.248 0,5.977 .035,1.656-.072,3.168-.18,4.68-.289,1.584-.865,3.168-1.332,4.608-.613,1.224-1.297,2.304-1.908,3.24-.685.9-1.296,1.656-1.98,2.268z" fill="url(#d)" fill-rule="evenodd"/>
 <path d="m5.472,449.604 25.38-25.344c-.9-.828-1.62-1.8-2.304-2.771-.684-1.08-1.476-2.089-1.836-3.168-.432-1.188-.792-2.16-.936-3.349-.252-1.188-.36-2.52-.324-3.852l.144-369.396-.144,1.908c-.036-1.368.072-2.7.324-3.852 .144-1.296.504-2.268.936-3.348 .36-1.188 1.152-2.196 1.836-3.168 .684-1.044 1.404-1.908 2.304-2.736l-25.38-25.38c-.72.576-1.332,1.332-1.98,2.268-.72.828-1.404,1.908-1.908,3.24-.54,1.368-1.188,2.952-1.368,4.608-.216,1.44-.216,2.952-.144,4.68-.036,1.692-.036,3.816 0,5.976v402.912c-.036,2.124-.036,4.248 0,5.976-.072,1.656-.072,3.168.144,4.68 .18,1.584.828,3.168 1.368,4.607 .504,1.225 1.188,2.304 1.908,3.24 .648.9 1.26,1.657 1.98,2.269z" fill="url(#c)" fill-rule="evenodd"/>
 <path d="m449.963,5.472-25.344,25.38c-.828-.9-1.799-1.62-2.771-2.304-1.08-.684-2.088-1.476-3.168-1.836-1.115-.432-2.123-.792-3.313-.936-1.223-.252-2.52-.36-3.887-.324l-369.396.144 1.908-.144c-1.368.036-2.7,0-3.852.288-1.296.144-2.268.468-3.348.972-1.188.36-2.196,1.152-3.168,1.836-1.044.684-1.908,1.404-2.736,2.304l-25.38-25.38c.576-.684 1.332-1.404 2.268-2.016 .792-.756 2.016-1.332 3.276-1.872 1.296-.54 2.916-1.188 4.572-1.368 1.44-.216 2.952-.216 4.68-.144 1.692-.036 3.816-.036 5.976,0h402.912c2.125-.036 4.248-.036 5.977,0 1.655-.072 3.167-.072 4.679.144 1.584.18 3.168.828 4.607,1.368 1.225.504 2.305,1.188 3.24,1.908 .901.648 1.657,1.26 2.268,1.98z" fill="url(#b)" fill-rule="evenodd"/>
 <path d="m449.604,449.28-25.344-25.381c-.828.828-1.801,1.656-2.771,2.341-1.08.647-2.088,1.296-3.168,1.8-1.117.396-2.125.72-3.313.972-1.225.18-2.52.288-3.889.324l-369.396-.18 1.908.18c-1.368-.036-2.7-.145-3.852-.324-1.296-.252-2.268-.576-3.348-.972-1.188-.504-2.196-1.152-3.168-1.8-1.044-.721-1.908-1.44-2.736-2.305l-25.379,25.345c.576.647 1.332,1.367 2.268,2.016 .792.612 2.016,1.296 3.276,1.908 1.296.468 2.916,1.044 4.572,1.332 1.44.144 2.952.144 4.68.144 1.692-.036 3.816-.036 5.976,0h402.912c2.123-.036 4.248-.036 5.977,0 1.654,0 3.168,0 4.68-.144 1.584-.252 3.168-.937 4.607-1.368 1.225-.648 2.305-1.224 3.24-1.872 .9-.649 1.656-1.368 2.268-2.016z" fill="url(#a)" fill-rule="evenodd"/>
 <path d="m185.844,213.388h-81.121c-.76-5.355.153-10.672 2.736-15.951 2.547-5.355 6.73-10.672 12.697-15.95l-10.91-34.196c-5.093,3.672-8.819,8.989-11.328,15.951-2.47,6.961-2.699,17.06-3.611,25.551-1.064,8.454-1.673,16.448-2.244,24.595h-18.587c-.419-13.426.076-25.475 1.33-36.453s3.232-20.235 6.348-29.224c2.966-9.181 6.501-18.667 12.242-25.054 5.74-6.35 14.217-10.022 22.2-12.776 8.058-2.792 16.726-3.979 25.392-4.131 8.515-.345 17.525-.269 25.394,2.294 7.717,2.449 14.559,7 20.833,12.776 6.119,5.738 11.366,12.775 15.888,21.421 5.17-10.901 9.999-17.901 14.94-21.421 4.828-3.595 11.861-2.754 14.066.459 2.128,3.212 2.205,9.639-1.37,18.704-3.724,8.989-14.445,29.645-20.869,35.114-6.538,5.355-12.05,1.186-18.132-2.754-6.195-4.131-12.278-11.131-18.551-21.42-3.345,11.628-5.321,19.699-6.348,25.093-1.026,5.24-.875,7.306.456,6.35 5.703,5.202 9.922,10.328 13.115,15.53 3.039,5.126 4.902,10.29 5.434,15.492z" fill="#7f7f7f" fill-rule="evenodd"/>
 <path d="m142.03 45.6c14.878 0 26.952 12.149 26.952 27.12s-12.074 27.12-26.952 27.12-26.951-12.15-26.951-27.12 12.074-27.12 26.951-27.12" fill="#7f7f7f" fill-rule="evenodd"/>
 <path d="m249.784,213.388h-23.114c7.832-26.393 15.928-47.431 24.444-64.299s14.598-29.224 26.306-36.032c11.669-6.847 29.65-4.973 43.068-5.011 13.305-.191 26.648-1.185 36.228,4.093 9.464,5.278 15.738,13.082 20.414,27.387 4.485,14.307 6.118,41.961 6.803,57.453 .608,15.3.039,26.698-2.735,33.736-2.927,6.771-9.657,7.881-14.027,7.307-4.334-.611-8.212-4.208-11.784-10.94 .646,45.788.646,81.13 0,107.638-.647,26.316.189,41.273-4.106,49.726-4.562,8.301-18.322,11.056-22.654,0-4.41-11.321-3.118-43.95-3.611-66.594-.571-22.722-.419-45.136.455-68.431h-9.543c.229,41.578.039,73.212-.416,96.239-.495,22.873 1.52,33.698-2.736,40.583-4.563,6.809-18.817,10.404-23.569,0-4.715-10.747-2.167-28.382-4.524-63.381-2.509-35.306-5.702-83.12-9.996-145.927-6.235,5.508-11.216,11.13-15.396,17.327-4.223,6.121-7.342,12.394-9.507,19.126z" fill="#7f7f7f" fill-rule="evenodd"/>
 <path d="m318.92 45.6c14.878 0 26.953 12.149 26.953 27.12s-12.075 27.12-26.953 27.12-26.951-12.15-26.951-27.12 12.075-27.12 26.951-27.12" fill="#7f7f7f" fill-rule="evenodd"/>
 <path d="m43.978 225.25h223.9v16.447h-223.9v-16.447z" fill="#7f7f7f" fill-rule="evenodd"/>
 <path d="m388.46 225.25h35.009v16.447h-35.009v-16.447z" fill="#7f7f7f" fill-rule="evenodd"/>
 <path d="m38.351 285.11 23.987-9.64c9.655 8.646 16.917 11.667 22.352 9.64 5.398-2.18 8.401-9.64 9.58-22.53l23.986-9.639 44.704 112.53-23.948 9.64c-9.693-8.683-16.992-11.742-22.352-9.64-5.437 2.182-8.478 9.525-9.58 22.492l-23.986 9.639-1e-3 0.039-44.742-112.53z" fill="#7f7f7f" fill-rule="evenodd"/>
 <path d="m121.52 266.98 25.052 6.157c2.813 12.699 7.032 19.432 12.658 20.923 5.587 1.339 12.467-2.906 20.793-12.737l25.051 6.159-28.51 117.74-25.09-6.158c-2.928-12.738-6.995-19.47-12.62-20.924-5.703-1.415-12.393 2.831-20.793 12.738l-25.088-6.158 28.547-117.74z" fill="#7f7f7f" fill-rule="evenodd"/>
 <path d="m182.271,210.52h-81.121c-.836-5.355.114-10.672 2.699-15.95 2.547-5.355 6.729-10.634 12.697-15.989l-10.872-34.196c-5.094,3.672-8.818,8.989-11.328,15.95-2.471,6.962-2.699,17.06-3.611,25.552-1.026,8.415-1.786,16.524-2.281,24.633h-18.551c-.418-13.503.075-25.513 1.33-36.491 1.254-11.017 3.23-20.158 6.349-29.186 2.964-9.256 6.5-18.705 12.24-25.092 5.74-6.35 14.217-10.022 22.2-12.775 8.06-2.831 16.726-3.902 25.394-4.093 8.514-.344 17.524-.268 25.392,2.295 7.679,2.448 14.674,7 20.832,12.776 6.159,5.737 11.29,12.775 15.851,21.42 5.133-10.939 10.075-17.787 14.978-21.42 4.867-3.558 11.784-2.831 14.028.421 2.091,3.212 2.282,9.639-1.33,18.704-3.802,9.027-14.332,29.53-20.87,35.114-6.539,5.316-12.05,1.262-18.132-2.716-6.234-4.13-12.241-11.13-18.589-21.458-3.345,11.514-5.321,19.737-6.348,25.093-1.027,5.202-.875,7.382.456,6.388 5.664,5.125 9.998,10.29 13.154,15.492 3.037,5.161 4.901,10.287 5.433,15.528z" fill="#17057a" fill-rule="evenodd"/>
 <path d="m138.48 42.667c14.877 0 26.951 12.149 26.951 27.12s-12.074 27.12-26.951 27.12-26.952-12.149-26.952-27.12 12.075-27.12 26.952-27.12" fill="#17057a" fill-rule="evenodd"/>
 <path d="m246.211,210.52h-23.151c7.907-26.393 15.965-47.431 24.48-64.299s14.599-29.224 26.306-36.032c11.708-6.848 29.574-4.973 43.031-5.011 13.305-.191 26.611-1.186 36.265,4.092 9.467,5.24 15.738,13.12 20.414,27.35 4.485,14.267 6.121,42.038 6.806,57.491 .608,15.3.037,26.699-2.736,33.738-2.89,6.77-9.733,7.879-14.065,7.305-4.335-.689-8.213-4.246-11.785-10.978 .646,45.9.646,81.052 0,107.676-.685,26.163.303,41.349-4.066,49.687-4.563,8.186-18.324,11.094-22.657,0-4.41-11.322-3.116-43.95-3.611-66.595-.569-22.72-.38-45.174.418-68.392h-9.503c.228,41.616.077,73.135-.455,96.201-.532,22.874 1.596,33.659-2.7,40.622-4.563,6.808-18.817,10.404-23.569,0-4.715-10.787-2.168-28.344-4.522-63.42-2.51-35.305-5.702-83.119-9.998-145.927-6.235,5.508-11.213,11.131-15.396,17.328-4.223,6.12-7.34,12.355-9.506,19.164z" fill="#17057a" fill-rule="evenodd"/>
 <path d="m315.24 42.667c14.877 0 26.952 12.149 26.952 27.12s-12.075 27.12-26.952 27.12-26.952-12.149-26.952-27.12 12.075-27.12 26.952-27.12" fill="#17057a" fill-rule="evenodd"/>
 <path d="m40.403 222.38h223.9v16.41h-223.9v-16.41z" fill="#17057a" fill-rule="evenodd"/>
 <path d="m384.88 222.38h35.011v16.41h-35.011v-16.41z" fill="#17057a" fill-rule="evenodd"/>
 <path d="m33.333 280.79 23.986-9.678c9.655 8.606 16.917 11.781 22.353 9.678 5.36-2.181 8.514-9.639 9.617-22.53l23.949-9.639 44.704 112.53-23.948 9.639c-9.693-8.684-16.992-11.743-22.352-9.639-5.437 2.18-8.478 9.523-9.58 22.491l-23.987 9.639-44.742-112.5z" fill="#17057a" fill-rule="evenodd"/>
 <path d="m38.73 283.08 18.172-7.268c10.073 7.957 18.169 10.711 24.291 8.262 6.082-2.563 10.187-10.021 12.316-22.988l17.334-7.001 41.738 104.96-17.753 7.153c-10.681-8.875-18.816-11.896-25.013-9.487-6.158 2.411-9.922 10.481-11.595 24.213l-17.752 7.153-41.738-105z" fill="#3d258e" fill-rule="evenodd"/>
 <path d="m116.51 262.66 25.052 6.158c2.813 12.699 7.032 19.432 12.659 20.924 5.587 1.338 12.467-2.907 20.793-12.737l25.051 6.158-28.51 117.74-25.09-6.159c-2.928-12.736-6.994-19.47-12.621-20.922-5.703-1.416-12.393 2.83-20.793 12.736l-25.088-6.158 28.547-117.74z" fill="#17057a" fill-rule="evenodd"/>
 <path d="m119.55 267.7 18.968 4.667c3.688 12.317 8.554 19.278 15.016 20.885 6.386 1.53 14.103-2.295 23.303-11.475l18.169 4.437-26.609 109.86-18.589-4.552c-3.536-13.465-8.438-20.732-14.862-22.378-6.463-1.605-14.18 2.717-23.455 12.967l-18.551-4.551 26.61-109.86z" fill="#3d258e" fill-rule="evenodd"/>
</svg>
